<?xml version="1.0" standalone="no"?>
<!DOCTYPE svg PUBLIC "-//W3C//DTD SVG 20010904//EN"
 "http://www.w3.org/TR/2001/REC-SVG-20010904/DTD/svg10.dtd">
<svg version="1.0" xmlns="http://www.w3.org/2000/svg"
 width="512.000000pt" height="512.000000pt" viewBox="0 0 512.000000 512.000000"
 preserveAspectRatio="xMidYMid meet">
<metadata>
Created by potrace 1.15, written by Peter Selinger 2001-2017
</metadata>
<g transform="translate(0.000000,512.000000) scale(0.100000,-0.100000)"
fill="#000000" stroke="none">
<path d="M203 4958 c-174 -172 -196 -198 -191 -231 3 -19 32 5 192 163 103
102 192 193 197 203 8 14 5 17 -17 17 -21 0 -60 -33 -181 -152z"/>
<path d="M303 4858 c-140 -139 -264 -265 -275 -281 -10 -15 -18 -37 -16 -50 3
-18 49 23 292 263 158 157 292 293 297 303 8 14 5 17 -17 17 -22 0 -75 -47
-281 -252z"/>
<path d="M402 4758 c-194 -194 -362 -365 -373 -381 -11 -15 -19 -37 -17 -50 4
-18 67 40 392 363 213 212 392 393 397 403 8 14 5 17 -18 17 -22 0 -89 -62
-381 -352z"/>
<path d="M502 4658 c-249 -249 -462 -465 -473 -481 -11 -15 -19 -37 -17 -50 4
-18 84 57 492 463 268 267 492 493 497 503 8 14 5 17 -18 17 -22 0 -104 -76
-481 -452z"/>
<path d="M602 4558 c-304 -304 -562 -565 -573 -581 -11 -15 -19 -37 -17 -50 4
-18 101 75 592 563 323 322 592 593 597 603 8 14 5 17 -18 17 -23 0 -118 -91
-581 -552z"/>
<path d="M702 4458 c-359 -359 -662 -665 -673 -681 -11 -15 -19 -37 -17 -50 4
-18 118 92 692 663 378 377 692 693 697 703 8 14 5 17 -18 17 -23 0 -133 -106
-681 -652z"/>
<path d="M802 4358 c-414 -414 -762 -765 -773 -781 -11 -15 -19 -37 -17 -50 4
-18 136 109 792 763 433 432 792 793 797 803 8 14 5 17 -18 17 -23 0 -148
-120 -781 -752z"/>
<path d="M1215 4571 c-336 -334 -552 -543 -572 -551 -72 -28 -115 -74 -159
-170 -22 -48 -232 -1309 -240 -1441 -13 -206 36 -476 129 -709 82 -206 577
-1295 594 -1307 46 -35 123 3 123 60 0 15 -128 312 -284 660 -375 834 -399
908 -400 1222 l0 170 108 634 c62 369 114 646 123 661 19 33 70 68 112 76 23
5 46 0 81 -16 27 -13 47 -27 44 -32 -9 -15 7 -50 21 -44 32 12 28 -126 -11
-444 -9 -69 -18 -170 -20 -224 -3 -66 -9 -105 -18 -115 -8 -9 -18 -34 -22 -56
-6 -36 -6 -39 9 -26 15 12 17 11 17 -7 0 -12 -7 -25 -16 -30 -33 -18 -107 -98
-127 -137 -13 -26 -22 -65 -24 -115 -4 -70 2 -101 106 -490 62 -228 118 -434
127 -456 24 -67 87 -82 134 -31 11 11 20 29 20 39 0 11 -54 221 -121 468 -111
413 -119 452 -109 489 17 64 72 100 180 117 28 4 45 -1 83 -25 28 -18 45 -36
41 -42 -3 -6 3 -23 14 -38 22 -30 44 -99 36 -112 -3 -5 4 -28 15 -52 11 -25
23 -64 27 -88 3 -24 12 -58 19 -75 8 -16 18 -55 24 -85 5 -30 17 -74 26 -99 9
-25 17 -56 18 -70 2 -16 12 -29 29 -38 15 -7 37 -27 50 -45 12 -18 66 -75 119
-127 53 -52 99 -103 102 -112 4 -10 12 -18 20 -18 7 0 28 -16 47 -35 19 -19
30 -35 25 -35 -4 0 0 -9 10 -20 10 -11 20 -18 23 -15 7 7 61 -68 56 -77 -7
-11 16 -49 25 -44 11 7 44 -67 46 -100 0 -14 5 -28 11 -32 16 -11 21 -30 38
-153 76 -540 75 -533 97 -552 12 -9 35 -17 52 -17 29 0 8 -24 -291 -323 -177
-177 -322 -326 -322 -330 0 -4 12 -7 27 -7 23 0 201 173 1100 1072 1070 1070
1093 1093 1093 1153 0 5 -343 -332 -761 -750 -419 -418 -759 -755 -756 -750 2
6 1 33 -3 60 l-8 50 793 795 c732 734 793 798 803 839 10 43 -28 6 -797 -763
l-808 -808 -7 58 -7 58 996 996 c941 941 995 997 995 1030 0 34 -41 -6 -999
-964 l-999 -999 -6 34 c-3 19 -7 44 -8 56 -2 18 200 225 995 1021 946 946 998
1000 991 1026 -6 27 -51 -16 -1004 -969 l-997 -997 -7 58 -7 58 996 996 c970
970 1020 1023 987 1044 -5 3 -456 -442 -1002 -989 l-994 -994 -18 47 -18 47
596 596 596 596 38 -10 c31 -9 43 -7 64 7 39 25 52 59 39 100 l-10 34 343 343
c321 321 344 346 344 379 0 34 -10 25 -353 -318 l-353 -353 -16 49 -15 50 369
368 c203 203 379 387 393 410 26 45 98 114 141 138 16 8 228 214 472 458 368
369 442 448 442 471 0 23 -3 26 -17 18 -10 -5 -423 -415 -918 -910 l-900 -901
-16 48 -17 47 934 935 c782 783 934 940 934 963 0 15 -3 27 -7 27 -4 0 -429
-421 -943 -935 l-936 -936 -16 49 -15 50 894 893 c492 492 899 902 904 912 8
14 5 17 -18 17 -23 0 -167 -139 -913 -885 l-886 -886 -16 50 -15 49 166 165
c115 113 204 191 287 251 144 103 155 114 156 157 0 31 44 78 524 559 288 289
524 529 524 533 0 4 -12 7 -27 7 -23 0 -115 -88 -538 -510 l-510 -509 -58 6
-59 6 496 496 c273 273 496 500 496 504 0 4 -12 7 -27 7 -22 0 -114 -87 -533
-504 l-505 -505 -67 -3 -68 -3 500 500 c275 275 500 504 500 508 0 4 -12 7
-27 7 -23 0 -115 -88 -538 -510 l-510 -510 -65 0 -65 0 503 503 c276 276 502
506 502 510 0 4 -12 7 -27 7 -23 0 -115 -88 -538 -510 l-510 -510 -65 0 -65 0
503 503 c276 276 502 506 502 510 0 4 -12 7 -27 7 -22 0 -115 -87 -534 -506
l-506 -506 -17 48 -16 48 450 451 c247 248 450 454 450 458 0 4 -12 7 -27 7
-22 0 -103 -76 -458 -430 l-431 -431 -16 50 -15 49 364 363 c200 200 369 372
374 382 8 14 5 17 -18 17 -22 0 -88 -61 -378 -350 -193 -192 -353 -350 -357
-350 -3 0 -11 21 -18 46 l-13 46 296 297 c164 163 297 300 297 304 0 4 -12 7
-27 7 -21 0 -79 -53 -304 -276 -152 -152 -279 -272 -282 -267 -2 4 -10 25 -17
47 l-12 38 221 222 c121 122 221 225 221 229 0 4 -12 7 -26 7 -22 0 -68 -41
-229 -201 l-203 -201 -16 48 -16 48 145 146 c80 81 145 150 145 153 0 4 -12 7
-26 7 -20 0 -57 -30 -156 -127 l-130 -128 -46 3 c-62 5 -82 -18 -115 -128 -14
-47 -63 -209 -109 -360 l-84 -275 -69 -3 -70 -3 52 53 c31 31 59 71 68 97 8
24 14 46 12 47 -2 2 -48 -42 -102 -96 l-100 -100 -65 0 -65 0 197 198 c157
157 201 206 213 241 8 24 14 45 12 47 -2 2 -113 -107 -247 -241 -259 -259
-252 -254 -330 -239 -32 7 -30 8 464 503 273 273 496 500 496 504 0 4 -12 7
-27 7 -22 0 -114 -87 -533 -505 l-505 -505 -65 0 -65 0 498 498 c273 273 497
501 497 505 0 4 -12 7 -27 7 -23 0 -150 -122 -766 -737 l-738 -738 7 70 6 70
659 660 c363 363 659 664 659 668 0 4 -12 7 -27 7 -23 0 -135 -108 -668 -639
l-640 -639 -21 43 -20 44 578 578 c319 318 584 586 589 596 8 14 5 17 -18 17
-23 0 -122 -94 -604 -576 l-577 -577 -34 23 c-18 13 -35 25 -38 27 -2 2 240
248 538 546 298 298 542 546 542 550 0 4 -12 7 -27 7 -23 0 -120 -92 -568
-540 l-541 -541 -53 12 -54 11 522 522 c286 287 521 525 521 529 0 4 -12 7
-27 7 -23 0 -120 -93 -568 -539z m1479 -258 l16 -47 -30 -32 c-25 -25 -30 -36
-24 -58 l7 -27 31 30 32 31 16 -49 15 -49 -30 -30 c-24 -24 -28 -35 -23 -57
l7 -28 29 28 c17 16 31 27 34 24 2 -2 10 -24 18 -48 25 -79 35 -81 357 -74
179 4 272 2 266 -4 -5 -6 -104 -78 -220 -160 -115 -83 -219 -160 -229 -172
-11 -12 -20 -37 -20 -56 -1 -23 -11 -44 -28 -62 -20 -20 -26 -35 -21 -51 7
-28 11 -28 44 4 l27 25 16 -47 16 -48 -30 -31 c-21 -22 -28 -36 -24 -53 8 -28
12 -28 45 4 l27 25 16 -47 16 -48 -30 -31 c-21 -22 -28 -36 -24 -53 8 -28 12
-28 45 4 l27 25 16 -47 c21 -62 8 -76 -38 -41 -19 15 -37 27 -41 27 -3 0 -80
56 -172 125 -116 88 -174 125 -193 125 -19 0 -92 -49 -253 -170 -125 -94 -227
-168 -227 -165 0 3 38 121 85 263 47 142 85 269 85 283 0 13 -6 31 -13 39 -7
9 -109 85 -227 169 -118 85 -219 159 -225 164 -6 6 93 8 274 4 l283 -5 28 27
c22 20 39 63 81 201 60 201 66 215 75 183 8 -29 15 -29 44 2 13 14 25 25 26
25 1 0 9 -21 18 -47z m-855 -571 c171 -123 311 -228 311 -234 0 -6 -55 -177
-121 -380 l-122 -369 21 -28 20 -28 -236 -236 c-131 -131 -240 -237 -243 -237
-4 0 -12 21 -18 47 l-12 47 195 195 c155 155 199 205 211 240 8 24 15 46 15
50 0 3 -98 -93 -219 -213 l-218 -218 -13 52 -13 52 266 267 c216 216 269 274
282 310 8 24 15 46 15 50 0 3 -130 -124 -289 -283 l-289 -289 -11 39 c-6 21
-11 46 -11 54 0 8 149 164 331 345 309 308 345 349 364 415 4 16 -129 -111
-353 -334 l-360 -359 -20 44 -20 44 371 371 c354 356 369 372 347 384 -21 12
-42 -8 -386 -351 l-362 -362 -35 29 -35 29 361 362 c343 344 360 363 342 377
-19 14 -41 -5 -385 -349 l-365 -363 -53 11 -53 11 378 378 c359 359 377 379
360 395 -16 17 -35 0 -388 -352 l-371 -370 4 68 4 68 327 327 c258 258 325
330 315 340 -7 7 -17 12 -22 12 -6 0 -146 -135 -311 -300 l-301 -301 4 68 4
68 261 263 c249 250 261 264 242 278 -18 14 -33 1 -256 -222 l-237 -237 5 69
5 69 196 198 c108 108 191 197 184 197 -6 0 -12 5 -12 10 0 6 11 10 24 10 13
0 29 7 37 16 12 14 14 14 20 -3 4 -10 147 -118 318 -241z m1014 -744 c111 -83
218 -165 237 -182 19 -17 49 -41 65 -53 l30 -22 -585 -586 c-322 -322 -587
-585 -590 -585 -3 0 -14 18 -26 39 l-21 39 553 553 c527 527 552 554 537 572
-16 17 -43 -8 -568 -533 l-552 -551 -28 36 -28 37 543 543 c519 519 542 543
520 555 -22 12 -51 -16 -561 -526 l-539 -539 -32 33 -33 32 535 536 c508 507
534 536 515 550 -18 14 -49 -15 -550 -516 l-531 -531 -32 33 -32 34 525 524
c404 404 522 527 513 537 -6 7 -16 13 -22 13 -6 0 -245 -234 -531 -520 l-519
-520 -34 32 -33 32 517 517 c320 320 514 521 509 528 -8 14 12 41 31 41 8 0
106 -68 217 -152z m-858 -448 l-449 -450 -33 32 -33 32 257 259 c142 143 272
265 288 273 17 7 116 79 220 158 105 80 192 145 195 145 3 1 -197 -201 -445
-449z"/>
<path d="M4795 4350 c-216 -215 -318 -310 -333 -310 -40 0 -129 -40 -163 -73
-56 -55 -91 -130 -96 -206 -2 -36 11 -238 29 -447 l33 -382 -68 -11 c-112 -19
-171 -60 -216 -150 -15 -31 -61 -180 -101 -331 l-74 -275 -209 -217 c-222
-230 -259 -275 -312 -378 -57 -112 -73 -181 -120 -512 -51 -352 -51 -365 6
-388 38 -16 83 2 98 38 6 15 29 158 51 317 65 463 76 488 350 770 102 105 206
213 232 240 l47 50 79 297 c48 179 89 309 101 327 12 16 41 37 66 46 38 15 51
16 97 5 93 -22 132 -52 149 -112 9 -36 -1 -81 -112 -494 -109 -407 -120 -457
-109 -483 24 -58 111 -63 138 -8 6 12 63 218 127 457 110 410 117 439 113 510
-3 49 -12 89 -25 115 -23 44 -97 122 -124 130 -13 4 -19 21 -24 58 -11 98 -65
760 -65 799 0 61 25 104 74 128 59 28 95 25 149 -11 44 -29 52 -40 48 -63 -1
-4 5 -18 13 -31 14 -21 22 -55 30 -120 5 -45 26 -164 37 -215 5 -25 13 -74 18
-110 14 -97 30 -199 42 -250 5 -25 13 -74 18 -110 5 -36 17 -108 26 -160 37
-214 45 -269 56 -360 20 -170 -7 -367 -77 -579 -20 -58 -164 -391 -320 -739
-156 -348 -284 -644 -284 -658 0 -13 7 -36 16 -50 15 -22 15 -26 1 -42 -8 -9
-23 -36 -33 -60 -14 -37 -20 -43 -39 -38 -17 4 -45 -18 -148 -123 -70 -70
-127 -131 -127 -134 0 -4 12 -7 26 -7 21 0 70 42 228 196 110 107 206 201 213
207 6 7 187 190 402 408 319 323 391 400 391 422 0 15 -3 27 -7 27 -4 0 -164
-156 -356 -348 l-348 -347 52 115 52 115 303 306 c247 248 304 310 304 332 0
15 -3 27 -7 27 -4 0 -126 -118 -271 -262 -197 -197 -260 -254 -249 -228 76
185 66 170 304 411 178 180 223 231 223 252 0 15 -3 27 -7 27 -4 0 -89 -82
-190 -183 -202 -199 -193 -198 -113 -22 27 59 52 91 171 211 107 109 139 148
139 168 0 14 -3 26 -6 26 -4 0 -54 -46 -111 -102 l-104 -103 36 100 c33 90 42
105 111 177 52 54 74 85 74 103 0 14 -3 25 -6 25 -3 0 -30 -23 -60 -51 -30
-29 -54 -50 -54 -48 0 2 6 36 14 76 12 63 20 79 60 124 28 31 46 61 46 75 0
31 -2 30 -45 -7 l-35 -31 0 62 c0 58 3 65 40 107 42 48 57 103 22 84 -9 -5
-26 -19 -37 -31 l-20 -22 -5 58 c-5 58 -4 60 38 108 24 28 42 58 42 72 0 13
-2 24 -5 24 -3 0 -25 -18 -49 -40 l-44 -40 -7 55 -7 56 56 60 c37 39 56 69 56
85 0 20 -3 23 -17 15 -10 -5 -36 -28 -58 -50 -21 -23 -42 -41 -46 -41 -3 0 -9
23 -13 51 l-7 51 71 74 c48 51 70 82 70 99 0 14 -3 25 -6 25 -3 0 -37 -30 -75
-66 -72 -70 -72 -70 -84 -1 -6 38 -4 41 79 127 62 64 86 96 86 115 0 14 -3 25
-6 25 -4 0 -44 -37 -90 -81 -92 -90 -81 -90 -99 -3 -5 23 8 40 95 129 74 77
100 110 100 129 0 14 -3 26 -6 26 -4 0 -51 -44 -105 -97 -55 -53 -99 -93 -99
-87 -1 5 -5 29 -10 54 l-8 45 114 117 c86 88 114 123 114 142 0 14 -3 26 -7
26 -3 0 -57 -50 -119 -111 l-112 -111 -9 53 -9 54 128 131 c98 101 128 138
128 158 0 14 -3 26 -7 26 -3 0 -64 -57 -134 -126 l-127 -126 -7 56 -7 57 141
143 c110 112 141 150 141 170 0 39 -15 28 -164 -123 l-130 -130 -16 47 -16 47
163 166 c128 131 163 172 163 193 0 22 -3 25 -17 17 -10 -5 -89 -82 -177 -169
l-159 -160 -33 32 -33 31 210 211 c168 170 209 216 209 238 0 22 -3 25 -17 17
-10 -5 -114 -106 -231 -223 l-213 -214 -49 15 -49 16 280 281 c226 227 279
286 279 307 0 15 -3 27 -7 27 -4 0 -147 -139 -318 -310z"/>
<path d="M147 3501 c-106 -108 -137 -145 -137 -165 0 -38 16 -27 151 111 95
96 118 125 123 156 4 20 5 37 3 37 -2 0 -65 -63 -140 -139z"/>
<path d="M127 3281 c-89 -91 -117 -126 -117 -146 0 -37 16 -25 131 92 79 80
98 105 102 136 3 20 5 37 3 37 -1 0 -55 -54 -119 -119z"/>
<path d="M2382 737 c-397 -397 -722 -726 -722 -730 0 -4 12 -7 27 -7 23 0 140
113 703 675 616 616 677 680 697 730 11 30 20 55 19 55 0 0 -326 -325 -724
-723z"/>
<path d="M141 1296 c-100 -103 -131 -140 -131 -160 0 -14 3 -26 7 -26 3 0 68
61 144 136 103 103 135 140 132 155 -3 11 -9 21 -13 24 -4 2 -66 -56 -139
-129z"/>
<path d="M172 1126 c-128 -129 -162 -169 -162 -190 0 -22 3 -25 18 -17 9 5 88
81 176 169 144 145 157 161 147 181 -7 11 -13 21 -14 21 -2 0 -76 -74 -165
-164z"/>
<path d="M2442 597 c-320 -320 -582 -586 -582 -590 0 -4 12 -7 27 -7 23 0 121
94 579 551 481 481 553 556 558 587 3 20 4 37 3 39 -2 1 -265 -260 -585 -580z"/>
<path d="M202 956 c-153 -154 -192 -199 -192 -220 0 -22 3 -25 18 -17 9 5 102
95 206 199 158 159 187 193 181 211 -3 11 -10 21 -14 21 -4 0 -93 -87 -199
-194z"/>
<path d="M4596 550 c-284 -283 -522 -523 -527 -533 -8 -14 -5 -17 18 -17 23 0
108 81 511 483 266 265 492 494 503 510 11 15 19 37 17 50 -4 18 -89 -62 -522
-493z"/>
<path d="M232 787 c-179 -181 -222 -229 -222 -251 0 -22 3 -25 17 -17 10 5
116 108 237 229 184 185 217 223 211 241 -3 11 -10 21 -14 21 -4 0 -107 -101
-229 -223z"/>
<path d="M2527 482 c-257 -257 -467 -471 -467 -475 0 -4 12 -7 27 -7 22 0 104
77 464 436 390 390 438 440 442 473 2 20 3 37 3 38 -1 1 -212 -208 -469 -465z"/>
<path d="M267 622 c-207 -209 -257 -264 -257 -285 0 -15 3 -27 7 -27 15 0 523
515 523 530 -1 50 -24 31 -273 -218z"/>
<path d="M4696 450 c-229 -228 -422 -423 -427 -432 -8 -15 -5 -18 18 -18 22 0
93 66 411 383 211 210 392 394 403 410 11 15 19 37 17 50 -4 18 -72 -45 -422
-393z"/>
<path d="M297 451 c-233 -233 -287 -293 -287 -314 0 -15 3 -27 7 -27 4 0 138
131 299 291 224 223 290 296 287 310 -3 11 -9 21 -13 24 -3 2 -136 -125 -293
-284z"/>
<path d="M2605 358 c-294 -296 -346 -352 -328 -356 13 -2 35 6 50 17 16 11
164 156 331 323 270 272 302 307 302 336 0 18 -1 32 -3 32 -1 0 -160 -158
-352 -352z"/>
<path d="M4796 350 c-174 -173 -322 -323 -327 -332 -8 -15 -5 -18 17 -18 23 0
80 52 312 282 156 156 293 295 303 311 11 15 19 37 17 50 -4 18 -54 -28 -322
-293z"/>
<path d="M352 307 c-160 -161 -292 -296 -292 -300 0 -4 12 -7 27 -7 21 0 79
53 305 277 153 153 278 280 278 283 0 3 -6 14 -13 23 -11 15 -45 -16 -305
-276z"/>
<path d="M2732 287 c-149 -150 -272 -276 -272 -280 0 -4 12 -7 27 -7 21 0 79
52 299 272 150 149 271 275 268 280 -19 31 -59 -2 -322 -265z"/>
<path d="M1800 525 c-39 -12 -80 -50 -295 -267 -211 -213 -247 -253 -228 -256
13 -2 35 6 50 17 29 20 532 522 523 520 -3 0 -25 -7 -50 -14z"/>
<path d="M2912 267 c-138 -139 -252 -256 -252 -260 0 -4 12 -7 27 -7 21 0 76
49 280 252 254 253 262 264 208 267 -6 1 -124 -113 -263 -252z"/>
<path d="M3092 247 c-128 -128 -232 -236 -232 -240 0 -4 12 -7 27 -7 21 0 72
46 259 232 129 127 233 232 231 233 -1 1 -14 5 -28 8 -22 6 -49 -18 -257 -226z"/>
<path d="M480 233 c-191 -192 -222 -228 -203 -231 33 -5 57 15 267 226 158
159 187 193 181 211 -3 11 -10 21 -13 21 -4 0 -109 -102 -232 -227z"/>
<path d="M1515 449 c-20 -5 -104 -83 -245 -226 -182 -184 -212 -218 -193 -221
13 -2 35 6 50 17 51 36 448 441 433 440 -8 0 -28 -5 -45 -10z"/>
<path d="M4896 250 c-119 -118 -222 -223 -227 -232 -8 -15 -5 -18 17 -18 21 0
65 37 211 183 205 202 226 227 221 260 -3 19 -37 -11 -222 -193z"/>
<path d="M3271 225 c-116 -116 -211 -214 -211 -218 0 -4 12 -7 27 -7 21 0 68
42 235 207 114 114 208 210 208 214 0 4 -11 9 -24 11 -21 4 -56 -26 -235 -207z"/>
<path d="M1249 378 c-28 -7 -77 -51 -215 -191 -153 -154 -176 -182 -157 -185
13 -2 35 6 50 17 39 28 380 371 368 370 -6 -1 -26 -5 -46 -11z"/>
<path d="M3447 202 c-103 -104 -187 -191 -187 -195 0 -4 12 -7 26 -7 21 0 66
39 215 187 104 102 186 190 183 195 -19 30 -58 0 -237 -180z"/>
<path d="M3627 182 c-92 -93 -167 -171 -167 -175 0 -4 12 -7 26 -7 21 0 63 36
195 167 164 162 178 182 129 183 -9 0 -91 -76 -183 -168z"/>
<path d="M610 163 c-133 -135 -152 -158 -133 -161 31 -5 59 17 197 156 98 99
117 123 111 141 -3 11 -10 21 -14 21 -4 0 -76 -71 -161 -157z"/>
<path d="M983 308 c-35 -9 -64 -33 -185 -156 -123 -126 -140 -147 -121 -150
13 -2 35 6 50 17 27 19 312 302 303 300 -3 -1 -24 -6 -47 -11z"/>
<path d="M3807 162 c-81 -82 -147 -152 -147 -155 0 -4 12 -7 26 -7 20 0 60 33
176 147 149 147 156 159 103 162 -6 1 -77 -66 -158 -147z"/>
<path d="M4996 150 c-136 -133 -149 -150 -111 -150 18 0 49 23 111 82 102 98
127 130 122 161 -3 19 -19 7 -122 -93z"/>
</g>
</svg>
