<?xml version="1.0" standalone="no"?>
<!DOCTYPE svg PUBLIC "-//W3C//DTD SVG 20010904//EN"
 "http://www.w3.org/TR/2001/REC-SVG-20010904/DTD/svg10.dtd">
<svg version="1.0" xmlns="http://www.w3.org/2000/svg"
 width="256.000000pt" height="256.000000pt" viewBox="0 0 256.000000 256.000000"
 preserveAspectRatio="xMidYMid meet">
<metadata>
Created by potrace 1.15, written by Peter Selinger 2001-2017
</metadata>
<g transform="translate(0.000000,256.000000) scale(0.100000,-0.100000)"
fill="#000000" stroke="none">
<path d="M842 2377 c-6 -6 -14 -25 -17 -40 -7 -26 1 -37 102 -138 80 -80 114
-108 126 -103 9 3 17 10 17 16 0 16 -109 241 -127 260 -19 21 -85 25 -101 5z"/>
<path d="M1617 2372 c-18 -19 -127 -244 -127 -260 0 -6 8 -13 17 -16 12 -5 46
23 126 103 101 101 109 112 102 138 -3 15 -11 34 -17 40 -16 20 -82 16 -101
-5z"/>
<path d="M1243 2368 c-6 -7 -38 -78 -73 -158 -34 -80 -65 -149 -70 -153 -4 -5
-77 -15 -161 -23 -85 -8 -164 -16 -176 -19 -27 -6 -46 -39 -39 -63 4 -10 64
-69 136 -131 119 -104 129 -115 123 -139 -12 -46 -9 -66 9 -70 19 -4 31 18 41
78 6 35 5 36 -129 154 -74 65 -133 120 -130 123 2 2 75 11 163 19 87 8 167 16
178 19 15 3 37 45 90 169 39 91 72 166 75 166 3 0 15 -23 27 -50 16 -37 27
-50 42 -50 27 0 26 13 -7 80 -23 47 -31 55 -58 58 -17 2 -35 -3 -41 -10z"/>
<path d="M1361 2197 c-7 -9 1 -36 24 -91 19 -43 39 -84 45 -91 6 -7 70 -17
168 -25 86 -7 165 -16 176 -20 15 -5 -4 -26 -105 -115 -68 -60 -130 -113 -137
-120 -10 -9 -5 -43 23 -170 20 -88 38 -168 41 -177 3 -10 1 -18 -5 -18 -5 0
-78 40 -160 89 l-151 90 -151 -90 c-149 -88 -176 -101 -166 -76 2 6 12 50 22
95 16 71 16 85 4 92 -23 15 -32 -5 -55 -108 -24 -106 -21 -127 22 -138 19 -5
55 12 168 80 80 47 150 86 156 86 6 0 77 -39 156 -87 128 -76 148 -85 172 -77
20 7 28 17 30 40 2 25 -40 242 -64 325 -3 12 36 52 126 130 71 62 132 121 136
131 7 24 -12 57 -39 63 -12 3 -90 11 -174 19 -84 8 -156 17 -160 19 -5 3 -22
37 -38 76 -31 73 -46 89 -64 68z"/>
<path d="M755 1683 c-59 -8 -110 -22 -125 -32 -50 -36 -31 -121 28 -121 14 0
61 19 106 41 134 69 166 89 166 110 0 23 -29 24 -175 2z"/>
<path d="M1630 1682 c0 -22 29 -41 166 -111 45 -22 92 -41 106 -41 53 0 79 78
38 115 -20 18 -114 38 -239 51 -67 6 -71 5 -71 -14z"/>
<path d="M1268 1427 c-9 -9 -24 -72 -37 -151 -21 -127 -22 -139 -7 -161 24
-37 89 -35 113 1 16 26 16 33 -6 163 -24 143 -37 174 -63 148z"/>
<path d="M59 1184 c-40 -26 -59 -66 -59 -123 0 -48 6 -60 139 -258 83 -126
155 -224 182 -246 63 -55 117 -67 289 -67 100 0 150 -4 158 -12 7 -7 12 -40
12 -80 l0 -68 -40 0 -40 0 0 -165 0 -165 580 0 580 0 0 165 0 165 -40 0 -40 0
0 68 c0 40 5 73 12 80 8 8 58 12 158 12 172 0 226 12 289 67 27 22 99 120 182
246 133 198 139 210 139 258 0 94 -56 147 -145 137 -46 -6 -53 -12 -189 -147
l-142 -142 -62 3 -62 3 31 47 c38 58 46 111 26 161 -28 66 -119 98 -185 63
-15 -8 -129 -117 -253 -243 -269 -271 -259 -253 -259 -470 l0 -143 -40 0 -40
0 0 143 c0 217 10 199 -259 470 -124 126 -238 235 -253 243 -66 34 -157 3
-185 -63 -20 -50 -12 -103 26 -161 l31 -47 -62 -3 -62 -3 -142 142 -142 142
-54 4 c-38 3 -61 -1 -79 -13z m231 -219 l146 -145 115 0 115 0 17 -30 c22 -36
33 -37 72 -6 l30 24 -76 113 c-41 63 -78 122 -82 131 -9 25 24 62 49 54 11 -3
113 -100 227 -214 143 -144 213 -222 226 -253 17 -37 21 -65 21 -176 l0 -133
-140 0 -140 0 0 81 c0 93 -20 139 -68 157 -15 6 -99 12 -187 14 -224 4 -212
-4 -387 258 -76 112 -138 214 -138 225 0 24 18 45 39 45 8 0 80 -65 161 -145z
m1634 124 c19 -27 16 -33 -73 -168 l-76 -113 30 -24 c39 -31 50 -30 72 6 l17
30 116 0 115 0 145 145 c80 80 152 145 160 145 22 0 40 -20 40 -45 0 -11 -62
-113 -137 -225 -176 -262 -164 -254 -388 -258 -88 -2 -172 -8 -187 -14 -48
-18 -68 -64 -68 -157 l0 -81 -140 0 -140 0 0 133 c0 111 4 139 21 177 24 52
433 470 461 470 9 0 24 -10 32 -21z m-694 -924 l0 -75 -220 0 -220 0 0 75 0
75 220 0 220 0 0 -75z m540 0 l0 -75 -220 0 -220 0 0 75 0 75 220 0 220 0 0
-75z"/>
</g>
</svg>
